# xmcd
#
# Track frame offsets: 
#        150
#        11810
#        25029
#        35401
#        50906
#        66759
#        80733
#        96243
#        109201
#        123101
#        135153
#        147950
#        159334
#        172366
#        183919
#        197620
#        207719
#
# Disc length: 2986 seconds
#
# Revision: 1
# Processed by: cddbd v1.5.2PL0 Copyright (c) Steve Scherf et al.
# Submitted via: ExactAudioCopy v0.99pb4
#
DISCID=f30ba811
DTITLE=Guthrie Woody - Woody Guthrie CD5
DYEAR=2006
DGENRE=Folk USA
TTITLE0=The Golden Vanity
TTITLE1=The Dying Miner
TTITLE2=This Land Is Your Land
TTITLE3=Tom Joad Blues - Part 1
TTITLE4=Tom Joad Blues - Part 2
TTITLE5=Union Burying Ground
TTITLE6=Vigilante Man
TTITLE7=Waiting At The Gate
TTITLE8=We Shall Be Free
TTITLE9=What Did The Deep Sea Say?
TTITLE10=When The Yank's Go Marching In
TTITLE11=Who's Gonna Shoe Your Pretty Feet?
TTITLE12=Whoopie Tii Yi Yo, Get Along Little Doggies
TTITLE13=Will You Miss Me?
TTITLE14=Worried Man Blues
TTITLE15=Wreck Of The Old '97
TTITLE16=1913 Massacre
EXTD=YEAR: 2006\nDeja Vu Definitive Gold edition
EXTT0=
EXTT1=
EXTT2=
EXTT3=
EXTT4=
EXTT5=
EXTT6=
EXTT7=
EXTT8=
EXTT9=
EXTT10=
EXTT11=
EXTT12=
EXTT13=
EXTT14=
EXTT15=
EXTT16=
PLAYORDER=
